# xmcd
#
# Track frame offsets:
#	150
#	9682
#	23063
#	36127
#	47022
#	62083
#	76501
#	100999
#	111587
#	132591
#	148113
#	163126
#	176670
#	192240
#	205441
#	225014
#	239461
#	252228
#	267548
#	282696
#	298036
#	309123
#	324818
#
# Disc length: 4545 seconds
#
# Revision: 0
# Processed by: cddbd v1.5PL3 Copyright (c) Steve Scherf et al.
# Submitted via: dBpowerAMP V4.0
#
DISCID=4e11bf17
DTITLE=Georeg Strait - Cmt Concert
DYEAR=1900
DGENRE=
TTITLE0=There Stands The Glass
TTITLE1=Check Yes Or No
TTITLE2=When Did You Stop Loving Me
TTITLE3=Heartland
TTITLE4=I Get Carried Away
TTITLE5=Take Me Back To Tulsa
TTITLE6=Milk Cow Blues
TTITLE7=We Really Shouldn't Be Doing This
TTITLE8=Maria
TTITLE9=I Just Want To Dance With You
TTITLE10=Settle Down
TTITLE11=Always Never The Same
TTITLE12=Cherokee Maiden
TTITLE13=Write This Down
TTITLE14=Back Of Her Mind
TTITLE15=Amarillo By Morning
TTITLE16=Out Of The Clear Blue Sky
TTITLE17=Meanwhile
TTITLE18=Lead On
TTITLE19=I Cross My Heart
TTITLE20=Come On Round
TTITLE21=Love Is True
TTITLE22=Cowboy Rides Away
EXTD=
EXTT0=
EXTT1=
EXTT2=
EXTT3=
EXTT4=
EXTT5=
EXTT6=
EXTT7=
EXTT8=
EXTT9=
EXTT10=
EXTT11=
EXTT12=
EXTT13=
EXTT14=
EXTT15=
EXTT16=
EXTT17=
EXTT18=
EXTT19=
EXTT20=
EXTT21=
EXTT22=
PLAYORDER=
